<svg width="95" height="87" viewBox="0 0 95 87" fill="none" xmlns="http://www.w3.org/2000/svg">
<path d="M28.7633 0.800902C28.3147 1.24419 27.2223 2.33097 26.3347 3.21755C24.54 4.99071 21.0678 8.45124 18.9902 10.5175L17.654 11.8474V13.5562L17.6638 15.265L24.8229 22.2647C30.9286 28.2349 31.9723 29.2859 31.8845 29.4003C31.826 29.4718 30.7336 30.7945 29.4363 32.3389C28.1489 33.8833 26.2567 36.1355 25.2325 37.3581C24.2182 38.5736 23.1355 39.8605 22.8332 40.2037L22.287 40.8401L19.0293 40.8329H15.7716L15.5472 40.6685C15.4302 40.5755 13.9769 39.2814 12.3188 37.7871C10.6607 36.2928 8.52464 34.3694 7.56879 33.5115C6.62269 32.6535 5.85216 31.9242 5.87166 31.8884C5.93994 31.7454 13.616 25.6681 13.7038 25.6824C13.7623 25.6967 14.8937 26.5547 16.23 27.5985C17.5662 28.6424 18.8342 29.6219 19.039 29.7792L19.4097 30.0652L18.5123 30.9876L17.6247 31.9027L16.191 30.8517L14.7572 29.8007L13.8599 30.7087C13.3722 31.2021 12.9723 31.6239 12.9723 31.6453C12.9723 31.7097 18.2685 36.0711 18.3465 36.0711C18.444 36.0711 18.7074 35.828 21.4677 33.2469C22.6283 32.1673 24.1694 30.723 24.9107 30.0366C25.6422 29.3502 26.2274 28.764 26.2079 28.7211C26.1982 28.6853 23.9451 26.6619 21.2141 24.231L16.2397 19.8052H14.2402L12.2408 19.8123L10.3681 21.5069C9.33419 22.4363 6.58368 24.9245 4.25257 27.0265L0 30.8517V32.1744V33.4972L0.76078 34.1478C2.15554 35.349 4.13552 37.0578 7.21766 39.7175C8.90503 41.1689 10.7094 42.7348 11.2361 43.1852L12.192 44.0003V45.2015V46.4026L10.846 48.0614C9.09035 50.2278 5.09138 55.1755 3.81365 56.7628L3.21869 57.5135V59.065V60.6165L7.32495 64.7205C9.58778 66.9728 11.6068 68.989 11.8214 69.1964L12.2017 69.5681L16.2105 69.5538L20.2094 69.5324L22.5503 66.5652C26.3737 61.7033 26.9004 61.0312 26.9394 60.9454C26.9589 60.9025 25.7592 59.6871 24.2864 58.2499L21.6042 55.6259H19.2438H16.8835L15.4497 57.7351C14.6597 58.9006 14.0354 59.8587 14.0549 59.8658C14.0744 59.8801 14.806 60.2948 15.674 60.7953C16.8054 61.4388 17.2736 61.6747 17.3321 61.6104C17.3809 61.5603 17.8783 60.8525 18.4343 60.0374L19.4389 58.5502L20.5118 59.3296L21.5749 60.1089L19.7023 62.4969C18.6684 63.8125 17.7613 64.9279 17.693 64.9851C17.6052 65.0566 17.2346 65.0852 16.1715 65.0852H14.7767L14.0452 64.3774C13.6453 63.9841 12.27 62.6256 10.9923 61.3601L8.67094 59.0507L9.66581 57.8209C10.212 57.1417 10.9143 56.2837 11.2166 55.9119C11.519 55.5401 12.4261 54.4248 13.2161 53.4452C14.0062 52.4586 14.845 51.429 15.0693 51.1573L15.479 50.6568L18.6976 50.6353L21.9163 50.621L22.5015 51.2073C23.4281 52.1511 26.3835 55.1541 27.3101 56.0907C27.7782 56.5626 28.8511 57.6565 29.6997 58.5216C30.5483 59.3868 31.6504 60.5093 32.1576 61.0169C32.7136 61.5818 33.0354 61.9679 32.9867 62.0251C32.9476 62.0751 31.1822 63.8411 29.0657 65.9503C26.9492 68.0667 24.9887 70.0257 24.7059 70.3046C24.423 70.5906 23.2721 71.7346 22.1504 72.8571L20.1022 74.8948L20.0924 76.3105V77.7261L22.2577 79.9569C24.7546 82.5237 25.5739 83.3745 27.4466 85.3193L28.8024 86.7278H30.7238H32.6453L36.6833 83.3531C38.9071 81.5012 41.0236 79.7281 41.3942 79.4206C42.194 78.7486 42.2623 79.0131 40.731 77.1112C40.1263 76.3605 39.1314 75.1307 38.5169 74.38L37.405 73.0001H35.2495H33.0939L31.309 74.9663C30.3337 76.0459 29.5534 76.9682 29.5826 77.0254C29.6509 77.1613 31.2017 78.5055 31.2895 78.5055C31.3383 78.5055 31.9723 77.8906 32.7136 77.147C33.4646 76.3963 34.0986 75.7671 34.1376 75.7528C34.1766 75.7385 34.674 76.2962 35.2592 77.004L36.3029 78.2838L35.1812 79.2347C33.0354 81.058 31.3968 82.4021 31.3188 82.4236C31.2798 82.4307 29.807 81.0365 28.0513 79.3134C25.8665 77.1827 24.8717 76.1603 24.9302 76.1031C24.979 76.0531 26.2274 74.859 27.7002 73.4577C31.5041 69.8255 32.0503 69.3036 32.6063 68.7602L33.1037 68.2812H35.4446C37.6391 68.2812 37.8049 68.2883 37.9122 68.417C37.9707 68.4885 38.4779 68.9819 39.0436 69.5038C40.0385 70.4547 45.8711 75.9959 46.905 76.9825C47.1976 77.2614 47.4707 77.483 47.5098 77.4616C47.539 77.4473 49.7531 75.3738 52.4256 72.8571L57.2829 68.2812H59.5945H61.9158L66.0318 72.2279C69.7675 75.7885 70.1478 76.1818 70.0308 76.3105C69.6504 76.7609 63.7592 82.445 63.7007 82.4236C63.6519 82.4093 62.5205 81.4869 61.1843 80.3644L58.7361 78.3267L58.9507 78.0407C59.3896 77.4473 60.8137 75.717 60.8624 75.7242C60.8917 75.7242 61.5452 76.3677 62.3157 77.1541C63.096 77.9335 63.7592 78.5555 63.7885 78.5269C64.7834 77.6975 65.5344 76.9754 65.4759 76.911C65.4369 76.861 64.6273 75.9673 63.6715 74.9091L61.9353 73.0001H59.7505C57.8681 73.0001 57.556 73.0144 57.5072 73.1073C57.4584 73.2146 56.2685 74.6946 53.9666 77.5259C53.4594 78.148 53.0303 78.6985 53.001 78.7486C52.9718 78.8058 53.4692 79.2848 54.1812 79.8711C54.8542 80.4359 56.9805 82.2091 58.8922 83.8106L62.3742 86.7278H64.2957H66.2171L66.7926 86.1343C67.1047 85.8126 68.1093 84.7759 69.0262 83.8321C69.9333 82.8883 71.6304 81.1366 72.8008 79.9426L74.9076 77.7619V76.3248V74.8876L73.1227 73.1073C72.1376 72.1206 69.7382 69.7254 67.7875 67.7807C63.4179 63.4193 62.8717 62.8687 62.3547 62.3539L61.9548 61.9464L63.4764 60.402C64.3249 59.5512 65.4954 58.3643 66.0806 57.7566C66.6756 57.156 68.4995 55.3042 70.1283 53.6454L73.1032 50.621H76.3219L79.5406 50.6282L81.4913 53.0377C82.5544 54.3604 84.0175 56.1693 84.7392 57.0488C86.3095 58.9935 86.3486 59.0364 86.251 59.158C86.212 59.208 84.8368 60.5736 83.1982 62.1967L80.2331 65.1424L78.8188 65.1209L77.4045 65.0995L76.7803 64.313C76.0878 63.4479 74.0298 60.8382 73.6689 60.3806L73.4543 60.0874L74.5077 59.3153L75.5708 58.5359L76.6535 60.1232L77.7459 61.7105L78.6432 61.1957C79.1309 60.9168 79.8624 60.5093 80.2526 60.2876C80.633 60.0731 80.9548 59.873 80.9548 59.8372C80.9548 59.8015 80.3208 58.8362 79.5406 57.6994L78.1263 55.6259H75.7562L73.3958 55.6331L70.7623 58.2142C69.3188 59.637 68.1191 60.8382 68.0996 60.8811C68.0801 60.9311 68.8701 61.9822 69.8455 63.2119C70.8111 64.4489 72.1376 66.1291 72.7911 66.9585C73.864 68.3312 74.8003 69.5038 74.8588 69.5538C74.8686 69.5681 76.673 69.5753 78.8578 69.5753H82.8275L85.617 66.8012C87.1484 65.2782 89.1576 63.2691 90.0842 62.3468L91.7813 60.6666V59.065C91.7813 57.6279 91.7618 57.442 91.596 57.2418C91.4204 57.0202 90.9035 56.391 85.8804 50.1563C84.3881 48.3045 83.0909 46.6958 82.9933 46.5742C82.8275 46.3812 82.808 46.1953 82.808 45.1943V44.036L88.904 38.7809L95 33.5186V32.1744V30.8303L92.347 28.4351C90.884 27.1195 88.4748 24.9531 87.0021 23.6304C85.5293 22.3005 83.9687 20.8991 83.5493 20.513L82.7787 19.8052L80.7695 19.8123H78.7603L73.7859 24.2524C71.0549 26.6905 68.8018 28.7068 68.7921 28.7354C68.7726 28.7568 69.2505 29.2287 69.8455 29.7792C70.4307 30.3298 71.6792 31.4881 72.6057 32.3532C76.0195 35.5492 76.595 36.0711 76.6828 36.0711C76.7315 36.0711 77.9702 35.0773 79.4333 33.8618L82.0862 31.6453L81.2182 30.7516C80.7305 30.2583 80.3208 29.8364 80.3013 29.815C80.2818 29.8007 79.6186 30.2583 78.8285 30.8374L77.3948 31.8884L76.5755 31.0519C76.117 30.5872 75.7464 30.1582 75.7464 30.0938C75.7367 29.958 81.2377 25.6538 81.3742 25.6895C81.423 25.6967 83.2177 27.1052 85.3537 28.814L89.2259 31.9099L87.9969 33.0253C85.8121 34.9986 79.8429 40.361 79.5601 40.6041L79.2967 40.8401L76.0098 40.8329C74.2053 40.8258 72.6935 40.8043 72.6643 40.7757C72.6253 40.74 71.4548 39.3529 70.0601 37.6798C68.6653 36.0068 66.5195 33.4471 65.3003 31.9957C64.0909 30.5371 63.0862 29.3288 63.0765 29.3073C63.0667 29.2859 66.2464 26.14 70.1576 22.3219C74.059 18.4968 77.2972 15.2936 77.346 15.2007C77.3948 15.1077 77.4338 14.3284 77.4338 13.4704L77.4435 11.9046L77.1119 11.5829C76.9363 11.4041 74.4102 8.89453 71.5036 6.00599C68.6068 3.11745 66.0513 0.579257 65.827 0.371912L65.4369 0.000119426L62.0524 0.0144191L58.6679 0.0358687L54.3568 4.24713L50.0457 8.45839L50.4748 8.85878C50.7187 9.08043 52.806 11.0323 55.1273 13.2059C57.4487 15.3794 59.3799 17.1526 59.4091 17.1598C59.4384 17.1598 59.6822 16.9596 59.9553 16.7093C61.8183 15.0148 64.3249 12.7411 64.8809 12.2335L65.5441 11.6401L65.3198 11.4399C64.7346 10.8965 63.4374 9.80256 63.3886 9.80256C63.3496 9.79541 62.5498 10.4675 61.5939 11.2969C60.6381 12.1191 59.8285 12.7983 59.7798 12.7983C59.692 12.7983 57.3511 10.4031 57.3511 10.3102C57.3511 10.2745 58.1704 9.53802 59.1653 8.68004C60.1699 7.8149 61.5159 6.65663 62.1596 6.09179L63.3398 5.06936L63.5447 5.23381C63.6617 5.32676 64.8809 6.44213 66.2464 7.72196C67.6119 9.00178 69.2895 10.5747 69.982 11.2182C71.133 12.2979 71.2207 12.398 71.1037 12.541C71.0354 12.6196 68.8116 14.8718 66.1586 17.5315C62.3645 21.3424 61.2916 22.3791 61.1258 22.3791C58.2094 22.4077 56.9317 22.3863 56.8147 22.3005C56.7464 22.2433 54.7957 20.2842 52.4743 17.9462C50.153 15.6082 48.0852 13.5205 47.8706 13.3131L47.4902 12.9342L47.1684 13.2416C46.9928 13.4132 46.3393 14.0639 45.7248 14.6931C42.1453 18.3466 38.3901 22.1432 38.2536 22.2504C38.1073 22.3577 37.8439 22.372 36.0395 22.3791C34.9179 22.3791 33.923 22.3863 33.8352 22.3791C33.7572 22.3791 33.5329 22.229 33.3573 22.036C33.0159 21.6928 29.3291 17.9891 25.2716 13.9209C24.3645 13.0128 23.8183 12.4051 23.8573 12.3479C23.8963 12.305 25.2911 10.9894 26.9589 9.43792C30.8896 5.75575 31.6309 5.07651 31.6602 5.07651C31.6797 5.07651 33.0549 6.24909 34.7228 7.68621L37.7562 10.3031L36.5565 11.5257C35.8932 12.1978 35.3178 12.7626 35.2592 12.7697C35.1812 12.784 32.4502 10.4961 31.8162 9.88121C31.6699 9.74536 31.6114 9.78111 30.1874 11.0109L29.4754 11.6258L32.5087 14.3713C34.1668 15.8871 35.5714 17.124 35.6104 17.124C35.6689 17.124 43.0133 10.3317 44.7397 8.67289L44.9738 8.45124L40.653 4.22568L36.3321 0.000119426H32.9476H29.5729L28.7633 0.800902ZM49.2849 22.1146C50.8065 23.8449 57.8681 31.8384 59.2238 33.3685C59.5262 33.7188 60.0334 34.2908 60.3455 34.6483C60.6576 35.0058 62.7449 37.3724 64.9882 39.9106L69.0652 44.5151V45.8735L69.0749 47.2249L58.307 58.5002C52.3963 64.7062 47.5195 69.7826 47.4902 69.7826C47.4317 69.7826 46.6612 68.989 43.0329 65.171C42.5842 64.6991 41.7551 63.8268 41.1992 63.2405C40.6335 62.6471 39.0729 61.0098 37.7269 59.5941C36.3809 58.1784 34.7911 56.5054 34.1863 55.8762C33.5914 55.247 31.8747 53.4452 30.3824 51.8723C28.8901 50.2993 27.271 48.6119 26.8029 48.1186L25.9446 47.2249V45.8807V44.5437L29.768 40.1966C31.865 37.8085 34.1181 35.2632 34.7521 34.5339C35.3958 33.8046 36.8978 32.1029 38.0878 30.7445C39.2777 29.386 41.0334 27.3912 41.9892 26.3116C42.9353 25.2319 44.5544 23.3873 45.5883 22.2218C46.6124 21.0564 47.4805 20.1198 47.5293 20.1555C47.5683 20.1841 48.3583 21.0707 49.2849 22.1146Z" fill="#F5F5F5"/>
<path d="M45.7248 26.4403C43.6668 28.7282 37.9219 35.0844 33.5036 39.9678C28.8414 45.1157 28.4805 45.5304 28.4805 45.6162C28.4805 45.6877 30.3044 47.6896 40.3116 58.6289C41.9112 60.3806 44.174 62.8473 45.3249 64.1128C46.4856 65.3783 47.4707 66.4008 47.5195 66.3793C47.5683 66.3579 48.5339 65.3211 49.6653 64.0771C50.7967 62.833 52.1719 61.3244 52.7181 60.7381C53.2643 60.1446 55.4979 57.6994 57.6925 55.3042C59.887 52.9018 62.7546 49.7702 64.0713 48.3331C65.3881 46.896 66.461 45.6734 66.461 45.6162C66.461 45.559 65.0174 43.9145 63.252 41.9697C61.4964 40.025 59.3408 37.6441 58.4728 36.6788C57.0585 35.1059 51.6355 29.1143 48.6314 25.7896C47.9974 25.0961 47.4805 24.5241 47.4707 24.5241C47.461 24.5241 46.6807 25.3892 45.7248 26.4403ZM49.4604 34.0334C50.4358 35.0773 51.4209 36.1212 51.6453 36.3571C51.8696 36.593 53.4107 38.2161 55.059 39.9678C56.7171 41.7195 58.5703 43.6785 59.1848 44.3292C59.7993 44.9798 60.3162 45.5375 60.3357 45.5804C60.3552 45.6162 59.214 46.8602 57.8095 48.3331C56.3953 49.806 53.5667 52.7731 51.5185 54.9181C49.48 57.0631 47.7243 58.8863 47.6268 58.9721C47.4512 59.1294 47.4024 59.0793 41.0626 52.4371C37.5513 48.7549 34.6642 45.702 34.6447 45.6519C34.6252 45.6019 36.3614 43.7143 38.4877 41.4549C42.711 36.9934 44.6032 34.9915 46.3295 33.1611C47.1781 32.2531 47.4805 31.9885 47.5585 32.0529C47.6268 32.1029 48.4753 32.9895 49.4604 34.0334Z" fill="#F5F5F5"/>
<path d="M45.3446 39.6603C44.1937 40.7971 42.4185 42.5488 41.3847 43.5712L39.512 45.4159L39.9314 45.8592C40.3605 46.3025 41.7748 47.8111 42.9647 49.0838C43.3354 49.477 44.1254 50.3135 44.7204 50.9427C45.3154 51.5719 46.1737 52.4799 46.6223 52.959C47.071 53.438 47.4709 53.817 47.5099 53.7955C47.6757 53.724 55.3225 45.5517 55.342 45.4373C55.3518 45.3372 54.9909 44.9726 51.2553 41.2904C50.0263 40.0678 48.6803 38.7451 48.2804 38.3447C47.8805 37.9443 47.5197 37.6154 47.4806 37.6083C47.4514 37.6083 46.4858 38.5306 45.3446 39.6603ZM49.8898 42.9849C51.1773 44.2433 52.2599 45.3158 52.2892 45.3587C52.3282 45.4016 51.7527 46.0665 51.0212 46.8459C50.2897 47.618 49.2168 48.762 48.6218 49.3984C48.0366 50.0275 47.5197 50.5423 47.4904 50.5495C47.4514 50.5495 46.6126 49.6915 45.6177 48.6333C42.4673 45.2872 42.5843 45.4159 42.6916 45.3158C42.7404 45.2657 43.8328 44.2004 45.1105 42.9492C46.3785 41.7051 47.4514 40.6827 47.4904 40.6827C47.5197 40.6898 48.6023 41.7194 49.8898 42.9849Z" fill="#F5F5F5"/>
</svg>
