<svg width="1440" height="82" viewBox="0 0 1440 82" fill="none" xmlns="http://www.w3.org/2000/svg">
<path fill-rule="evenodd" clip-rule="evenodd" d="M0 2.87047L40 4.70006C80 6.30094 160 9.50272 240 19.3367C320 29.3994 400 45.8657 480 52.2693C560 58.9015 640 55.6997 720 45.8657C800 35.803 880 19.3367 960 9.50272C1040 -0.331302 1120 -3.53307 1200 4.70006C1280 12.9332 1360 32.6012 1400 42.4352L1440 52.2693V82H1400C1360 82 1280 82 1200 82C1120 82 1040 82 960 82C880 82 800 82 720 82C640 82 560 82 480 82C400 82 320 82 240 82C160 82 80 82 40 82H0V2.87047Z" fill="#AF4849"/>
</svg>
