<svg width="1440" height="52" viewBox="0 0 1440 52" fill="none" xmlns="http://www.w3.org/2000/svg">
<path fill-rule="evenodd" clip-rule="evenodd" d="M1440 50.1797L1400 49.0195C1360 48.0043 1280 45.9739 1200 39.7377C1120 33.3564 1040 22.9144 960 18.8536C880 14.6478 800 16.6782 720 22.9144C640 29.2957 560 39.7377 480 45.9739C400 52.2101 320 54.2405 240 49.0195C160 43.7985 80 31.3261 40 25.0899L0 18.8536V0H40C80 0 160 0 240 0C320 0 400 0 480 0C560 0 640 0 720 0C800 0 880 0 960 0C1040 0 1120 0 1200 0C1280 0 1360 0 1400 0H1440V50.1797Z" fill="#AF4849"/>
</svg>
